<?xml version="1.0" encoding="utf-8"?>
<!-- Generator: Adobe Illustrator 21.0.2, SVG Export Plug-In . SVG Version: 6.00 Build 0)  -->
<svg version="1.1" id="Layer_1" xmlns="http://www.w3.org/2000/svg" xmlns:xlink="http://www.w3.org/1999/xlink" x="0px" y="0px"
	 viewBox="0 0 100 100" style="enable-background:new 0 0 100 100;" xml:space="preserve">
<g>
	<path d="M60,40.5H40c-4.4,0-8,3.6-8,8v8c0,4.4,3.6,8,8,8h20c4.4,0,8-3.6,8-8v-8C68,44.1,64.4,40.5,60,40.5z M39.5,48.5
		c0-1.4,1.1-2.5,2.5-2.5s2.5,1.1,2.5,2.5S43.4,51,42,51S39.5,49.9,39.5,48.5z M56.6,57.5c-1.5,1.9-3.9,3-6.6,3s-5.1-1.1-6.6-3
		c-0.7-0.9-0.5-2.1,0.3-2.8c0.9-0.7,2.1-0.6,2.8,0.3c0.5,0.6,1.2,1,2,1.2c0.5,0.1,0.9,0.2,1.5,0.2c0.5,0,1-0.1,1.5-0.2
		c0.8-0.2,1.5-0.7,2-1.2c0.7-0.9,1.9-1,2.8-0.3C57.1,55.4,57.2,56.6,56.6,57.5z M58,51c-1.4,0-2.5-1.1-2.5-2.5S56.6,46,58,46
		s2.5,1.1,2.5,2.5S59.4,51,58,51z"/>
	<path d="M82,45.1c-0.9-0.4-1.9-0.6-3-0.6h-1v-2c0-7.7-6.3-14-14-14H52v-8.4c1.8-0.8,3-2.5,3-4.6c0-2.8-2.2-5-5-5s-5,2.2-5,5
		c0,2,1.2,3.8,3,4.6v8.4H36c-7.7,0-14,6.3-14,14v2h-1c-1.1,0-2.1,0.2-3,0.6c-2.9,1.2-5,4.1-5,7.4s2.1,6.2,5,7.4
		c0.9,0.4,1.9,0.6,3,0.6h1c0,6.3,4.1,11.6,9.8,13.4l-1.6,3.7l-2.8,6.4c-1.2,2.6,0.8,5.6,3.7,5.6h37.8c2.9,0,4.8-3,3.7-5.6l-2.8-6.4
		l-1.6-3.7c5.7-1.8,9.8-7.1,9.8-13.4h1c1.1,0,2.1-0.2,3-0.6c2.9-1.2,5-4,5-7.4S84.9,46.3,82,45.1z M72,56.5c0,6.6-5.4,12-12,12H40
		c-6.6,0-12-5.4-12-12v-8c0-6.6,5.4-12,12-12h20c6.6,0,12,5.4,12,12V56.5z"/>
</g>
</svg>
